<?xml version="1.0" standalone="no"?>
<!DOCTYPE svg PUBLIC "-//W3C//DTD SVG 20010904//EN"
 "http://www.w3.org/TR/2001/REC-SVG-20010904/DTD/svg10.dtd">
<svg version="1.0" xmlns="http://www.w3.org/2000/svg"
 width="700.000000pt" height="700.000000pt" viewBox="0 0 700.000000 700.000000"
 preserveAspectRatio="xMidYMid meet">
<metadata>
Created by potrace 1.11, written by Peter Selinger 2001-2013
</metadata>
<g transform="translate(0.000000,700.000000) scale(0.100000,-0.100000)"
fill="#000000" stroke="none">
<path d="M1084 4638 c-58 -22 -72 -32 -102 -75 -28 -40 -35 -112 -16 -165 27
-77 85 -108 202 -108 43 0 104 -5 135 -11 32 -5 72 -12 90 -14 29 -3 98 -14
122 -19 6 -2 33 -6 60 -10 28 -4 73 -11 100 -16 28 -5 66 -12 85 -14 19 -3 91
-15 160 -26 69 -11 136 -22 150 -25 39 -6 212 -35 240 -40 27 -5 213 -35 245
-40 28 -4 155 -25 185 -30 30 -6 188 -31 245 -40 22 -3 47 -7 55 -10 8 -2 38
-6 65 -10 28 -3 57 -8 65 -10 8 -3 31 -7 50 -10 19 -2 46 -6 60 -9 14 -2 116
-19 227 -37 111 -18 201 -34 200 -35 -1 -1 -69 -5 -152 -8 -82 -4 -184 -9
-225 -11 -41 -2 -133 -6 -205 -10 -71 -3 -166 -8 -210 -10 -115 -6 -278 -14
-407 -20 -62 -3 -151 -7 -198 -10 -47 -3 -141 -7 -210 -10 -69 -3 -159 -7
-200 -10 -41 -2 -129 -7 -195 -10 -296 -14 -307 -15 -345 -35 -100 -51 -125
-183 -53 -278 32 -42 71 -57 208 -78 17 -3 64 -11 105 -19 41 -8 116 -21 165
-30 50 -8 100 -17 111 -19 12 -2 37 -7 55 -10 19 -3 84 -14 144 -25 106 -19
128 -23 205 -36 19 -3 71 -13 115 -21 44 -8 94 -17 110 -19 17 -3 41 -7 55
-10 14 -3 77 -14 140 -25 164 -29 192 -38 110 -38 -73 1 -860 -13 -985 -16
-124 -4 -178 -39 -203 -128 -23 -83 11 -168 81 -205 40 -21 89 -21 1232 2 116
2 345 7 510 10 394 7 816 14 1096 20 126 3 240 9 255 15 121 46 143 226 39
306 -23 17 -53 27 -106 34 -41 5 -84 12 -95 14 -12 2 -39 7 -60 10 -43 7 -135
23 -174 31 -14 3 -52 10 -85 15 -33 6 -112 19 -175 31 -63 11 -167 29 -230 40
-153 27 -161 28 -190 34 -14 3 -50 9 -80 15 -30 5 -80 14 -110 19 -30 5 -71
12 -90 16 -19 3 -71 12 -115 20 -44 8 -96 17 -115 20 -88 14 -261 48 -258 50
2 2 71 6 153 10 83 4 177 8 210 10 33 2 119 6 190 9 72 4 164 9 205 11 41 2
134 7 205 10 133 6 238 11 405 20 52 3 138 7 190 9 52 3 149 8 215 11 134 7
208 11 405 19 195 9 241 15 281 38 106 59 113 237 12 299 -28 18 -241 59 -483
94 -24 4 -47 8 -50 10 -3 1 -32 6 -65 10 -32 3 -62 8 -65 10 -4 2 -31 7 -125
20 -11 2 -117 19 -235 39 -118 19 -233 38 -255 41 -22 3 -51 8 -65 11 -14 2
-38 7 -55 9 -33 5 -89 15 -120 21 -18 3 -154 25 -249 40 -21 3 -47 7 -56 9
-10 2 -40 7 -67 11 -26 5 -51 9 -55 10 -5 1 -23 3 -40 5 -18 2 584 6 1338 9
l1371 5 35 27 c119 91 77 293 -65 313 -23 3 -1144 7 -2492 8 -1347 2 -2464 6
-2481 9 -18 3 -50 -2 -80 -14z"/>
<path d="M2918 2685 c-2 -2 -25 -6 -51 -9 -126 -16 -240 -122 -275 -256 -24
-95 10 -233 76 -304 133 -142 354 -149 491 -15 69 68 95 135 96 244 0 80 -3
96 -30 149 -31 61 -92 123 -149 150 -34 16 -152 47 -158 41z"/>
<path d="M3662 2678 c-24 -4 -63 -17 -86 -29 -163 -81 -234 -280 -158 -442 61
-131 172 -200 319 -198 146 1 279 108 316 253 61 239 -147 460 -391 416z"/>
</g>
</svg>
