<svg id="Layer_1" data-name="Layer 1" xmlns="http://www.w3.org/2000/svg" viewBox="0 0 466.78 123.14"><defs><style>.cls-1{fill:#6daf44;}.cls-2{fill:#8ac758;}.cls-3{fill:#a0ce61;}.cls-4{fill:#abd267;}.cls-5{stroke:#6daf44;stroke-miterlimit:10;stroke-width:3px;}.cls-6{isolation:isolate;font-size:103.01px;font-family:ArialMT, Arial;}</style></defs><title>logo</title><path d="M293.1,174.4V152.8h5.7q5.55,0,8.4,2.7c1.9,1.8,2.8,4.4,2.8,7.9a13.44,13.44,0,0,1-.8,4.6,9.29,9.29,0,0,1-2.3,3.5,9.46,9.46,0,0,1-3.6,2.2,14.19,14.19,0,0,1-4.8.8h-5.4Zm2-19.8v18h3.3a12.45,12.45,0,0,0,4-.6,7.53,7.53,0,0,0,3-1.8,8.6,8.6,0,0,0,1.9-2.9,12,12,0,0,0,.6-4c0-5.8-3.1-8.7-9.2-8.7Z" transform="translate(-62.43 -58.56)"/><path d="M330.4,167a6.57,6.57,0,0,0,.4,2.5,8.48,8.48,0,0,0,1,1.9,5.23,5.23,0,0,0,1.7,1.2,5.38,5.38,0,0,0,2.2.4,7.82,7.82,0,0,0,4.9-1.8v1.9a8.85,8.85,0,0,1-5.4,1.6,8.21,8.21,0,0,1-2.8-.5,6.91,6.91,0,0,1-2.2-1.6,6.77,6.77,0,0,1-1.4-2.5,12.13,12.13,0,0,1-.5-3.4,10.73,10.73,0,0,1,.5-3.2,8.41,8.41,0,0,1,1.5-2.6,7.23,7.23,0,0,1,2.2-1.7,6.92,6.92,0,0,1,5.4-.1,4.54,4.54,0,0,1,1.9,1.5A7.71,7.71,0,0,1,341,163a10.55,10.55,0,0,1,.4,3.1v1h-11Zm9.1-1.7a5.63,5.63,0,0,0-1.1-3.7,3.74,3.74,0,0,0-3.1-1.3,4.84,4.84,0,0,0-1.8.3,4.92,4.92,0,0,0-1.5,1,4.35,4.35,0,0,0-1,1.6,6.46,6.46,0,0,0-.6,2.1Z" transform="translate(-62.43 -58.56)"/><path d="M360.7,174.4V151.5h1.9v22.9Z" transform="translate(-62.43 -58.56)"/><path d="M384,155.1a1.4,1.4,0,1,1,0-2.8.75.75,0,0,1,.5.1c.1.1.3.2.4.3s.2.3.3.4.1.3.1.6a.75.75,0,0,1-.1.5c-.1.1-.2.3-.3.4s-.3.2-.4.3A.76.76,0,0,1,384,155.1Zm-.9,19.3V159H385v15.4Z" transform="translate(-62.43 -58.56)"/><path d="M410.9,174.4h-1.8L403.2,159h2.1l4.3,11.8a7.67,7.67,0,0,1,.5,1.9h.1a7.76,7.76,0,0,1,.5-1.8L415,159h2.1Z" transform="translate(-62.43 -58.56)"/><path d="M436.2,167a6.57,6.57,0,0,0,.4,2.5,8.48,8.48,0,0,0,1,1.9,5.23,5.23,0,0,0,1.7,1.2,5.38,5.38,0,0,0,2.2.4,7.82,7.82,0,0,0,4.9-1.8v1.9a8.85,8.85,0,0,1-5.4,1.6,8.21,8.21,0,0,1-2.8-.5,6.91,6.91,0,0,1-2.2-1.6,6.77,6.77,0,0,1-1.4-2.5,12.13,12.13,0,0,1-.5-3.4,10.73,10.73,0,0,1,.5-3.2,8.41,8.41,0,0,1,1.5-2.6,7.23,7.23,0,0,1,2.2-1.7,6.92,6.92,0,0,1,5.4-.1,4.54,4.54,0,0,1,1.9,1.5,7.71,7.71,0,0,1,1.2,2.4,10.55,10.55,0,0,1,.4,3.1v1h-11Zm9.2-1.7a5.63,5.63,0,0,0-1.1-3.7,3.74,3.74,0,0,0-3.1-1.3,4.84,4.84,0,0,0-1.8.3,4.92,4.92,0,0,0-1.5,1,4.35,4.35,0,0,0-1,1.6,6.46,6.46,0,0,0-.6,2.1Z" transform="translate(-62.43 -58.56)"/><path d="M474.2,160.9a3.46,3.46,0,0,0-3.2-.2,3.92,3.92,0,0,0-1,.8,6.22,6.22,0,0,0-.8,1.2,5.78,5.78,0,0,0-.5,1.4c-.1.5-.2,1-.3,1.4a6.15,6.15,0,0,0-.1,1.4v7.6h-1.9V159h1.9v3.3h.1a5.24,5.24,0,0,1,1.7-2.6,7.46,7.46,0,0,1,1.2-.7,3,3,0,0,1,1.3-.2,2,2,0,0,1,.8.1,1.85,1.85,0,0,1,.7.2v1.8Z" transform="translate(-62.43 -58.56)"/><path d="M497,177.2a9.91,9.91,0,0,1-2.1,3.4,4.11,4.11,0,0,1-2.8,1.1,5.21,5.21,0,0,1-1.4-.2v-1.8a6.37,6.37,0,0,0,.7.2c.2,0,.5.1.7.1a2.72,2.72,0,0,0,1.7-.6,4.07,4.07,0,0,0,1.2-1.8l1.3-3.2L490.4,159h2.1l4.4,12.2c.1.2.1.3.2.5s.1.4.2.6h.1c0-.2.1-.3.1-.5a1.42,1.42,0,0,1,.2-.6l4.7-12.3h2Z" transform="translate(-62.43 -58.56)"/><path class="cls-1" d="M291.4,138.5a67.75,67.75,0,0,1,2.7-8.5c1.1-3.1,2.5-6.4,3.9-9.8s3.1-6.8,4.9-10.3,3.7-6.9,5.6-10.2,3.9-6.4,5.9-9.4a90.34,90.34,0,0,1,6-7.9,29.74,29.74,0,0,0,2.1-2.4c.9-.9,1.8-1.9,2.9-2.9l3.3-3a41.14,41.14,0,0,1,3.5-2.7,23.72,23.72,0,0,1,3.4-1.9,7.3,7.3,0,0,1,3.1-.7,8.12,8.12,0,0,1,3.5.7,6.62,6.62,0,0,1,2.7,1.9,9.47,9.47,0,0,1,1.8,2.9,11,11,0,0,1,.6,3.7,9.7,9.7,0,0,1-.1,1.7l-.3,1.8-5.6,28.1c.5-.8,1.2-1.8,2.1-3.1s1.9-2.8,3.1-4.4,2.3-3.3,3.6-5.1,2.5-3.5,3.6-5.1,2.3-3.1,3.3-4.5,1.8-2.5,2.5-3.3l.9-1.2c.6-.8,1.3-1.7,2.2-2.7s1.8-2.1,2.9-3.3,2.2-2.3,3.3-3.4,2.4-2.1,3.6-3a16.8,16.8,0,0,1,3.6-2.1,8.84,8.84,0,0,1,3.4-.8,3.17,3.17,0,0,1,2,.6,4.71,4.71,0,0,1,1.3,1.5,7.11,7.11,0,0,1,.7,2.2,21.12,21.12,0,0,1,.2,2.6,21.52,21.52,0,0,1-.4,4.3,33.33,33.33,0,0,1-.8,3.9c-.2.9-.4,2.3-.7,4s-.6,3.7-1,6-.8,4.7-1.2,7.3-.9,5.3-1.3,8-.9,5.4-1.4,8-.9,5.1-1.3,7.4-.7,4.4-1.1,6.2-.6,3.2-.8,4.2c-.1.5-.3,1.1-.5,1.9a8.18,8.18,0,0,1-1,2.4,6.48,6.48,0,0,1-1.7,2,3.66,3.66,0,0,1-2.5.9,3,3,0,0,1-1.5-.5,8,8,0,0,1-1.3-1.3,5.56,5.56,0,0,1-.9-1.7,13.64,13.64,0,0,1-.4-1.7l10.5-49.7c.1-.5.2-.9.3-1.3a4.1,4.1,0,0,0,.1-1.1,3.08,3.08,0,0,0-.1-1,2.92,2.92,0,0,1-.2-.9,6.89,6.89,0,0,0-.3-.8,44.9,44.9,0,0,0-4.9,4.4,77.94,77.94,0,0,0-5.2,5.9c-1.7,2.2-3.5,4.5-5.3,6.9s-3.4,4.9-5,7.3c-1.2,1.9-2.6,3.9-4,6s-2.9,4.2-4.3,6.4-2.8,4.3-4.2,6.4-2.6,4.2-3.7,6.1a31.51,31.51,0,0,0-1.7,3.6c-.6,1.5-1.2,2.9-1.9,4.3a20.19,20.19,0,0,1-2.2,3.6,3.44,3.44,0,0,1-2.7,1.5,3.58,3.58,0,0,1-1.9-.4,2.73,2.73,0,0,1-1.2-.9,4.58,4.58,0,0,1-.7-1.4,8.81,8.81,0,0,1-.2-1.7,17.85,17.85,0,0,1,.2-2.3c.2-.8.3-1.5.5-2.2.7-3,1.4-5.9,2.2-8.8s1.6-5.9,2.4-9,1.7-6.2,2.5-9.5,1.8-6.7,2.7-10.4c.2-1,.5-2.2.8-3.5l.9-3.9c.3-1.3.5-2.6.7-3.8a20.2,20.2,0,0,0,.3-3.3,10.61,10.61,0,0,0-.2-2.1c-.1-.5-.4-.8-.8-.8a7.43,7.43,0,0,0-3.9,1.4,22.41,22.41,0,0,0-4.2,3.6,47.37,47.37,0,0,0-4.2,5.2,61.74,61.74,0,0,0-3.9,6c-1.2,2.1-2.4,4.1-3.5,6.1s-2,3.8-2.8,5.4c-.2.3-.4.8-.7,1.4s-.7,1.4-1.3,2.5-1.2,2.4-1.9,4-1.6,3.7-2.7,6.2-2.2,5.5-3.5,9-2.9,7.6-4.5,12.3a3.89,3.89,0,0,1-1.6,2,4.26,4.26,0,0,1-2.3.8,4.91,4.91,0,0,1-3.8-1.4,5.13,5.13,0,0,1-1.2-3.5A4.53,4.53,0,0,1,291.4,138.5Z" transform="translate(-62.43 -58.56)"/><path class="cls-1" d="M413.6,140.8a16.28,16.28,0,0,1,.4-3.5,34,34,0,0,0,.4-5.1c-1.1.8-2.3,1.8-3.7,2.9a46.32,46.32,0,0,1-4.2,3.2,23.89,23.89,0,0,1-4.3,2.5,9.07,9.07,0,0,1-4,1,9.29,9.29,0,0,1-2.9-.5,7.14,7.14,0,0,1-2.3-1.2,13.14,13.14,0,0,1-3.8-4.2A9.88,9.88,0,0,1,388,131a24.62,24.62,0,0,1,.2-2.6c.2-.9.4-1.9.7-3.1a44.31,44.31,0,0,1,6.6-14.7A43.38,43.38,0,0,1,407,99.1a16.49,16.49,0,0,1,5.3-2.4,23.8,23.8,0,0,1,5.3-.5,12.3,12.3,0,0,1,2.6.2c1,.1,1.8.2,2.6.3.8-.2,1.4-.3,1.9-.4a7.57,7.57,0,0,1,1.5-.1,6.25,6.25,0,0,1,2.5.4,3.81,3.81,0,0,1,1.6,1.1,5.07,5.07,0,0,1,.9,1.6,5.66,5.66,0,0,1,.3,1.8,6.9,6.9,0,0,1-.4,2.5c-.3.8-.5,1.6-.8,2.4l-6.6,26.5c-.1,1.4-.3,2.8-.4,4a18.57,18.57,0,0,1-.6,3.4,7.6,7.6,0,0,1-.4,1.1,5.39,5.39,0,0,1-.7,1.3,4.73,4.73,0,0,1-1.3,1.1,3.94,3.94,0,0,1-2,.5,15.74,15.74,0,0,1-2.5-.2,2.59,2.59,0,0,1-1.4-.6,2.76,2.76,0,0,1-.7-.9C413.7,141.7,413.6,141.3,413.6,140.8Zm-16.7-15.2a17.32,17.32,0,0,0-.4,2,11.4,11.4,0,0,0-.2,2.6,6.05,6.05,0,0,0,.4,2.4,1.8,1.8,0,0,0,1.8,1.1,8.6,8.6,0,0,0,3.9-.9,19.82,19.82,0,0,0,3.4-2.2c1.4-1.2,2.9-2.5,4.4-3.9a60.16,60.16,0,0,0,4.2-4.6,41,41,0,0,0,3.5-5,18.75,18.75,0,0,0,2.2-5.1,25.29,25.29,0,0,0,.7-3.4,22.39,22.39,0,0,0,.3-3.4,3.08,3.08,0,0,0-.3-1.3,1.21,1.21,0,0,0-1.2-.6,13.11,13.11,0,0,0-5,1,18.67,18.67,0,0,0-4.8,2.6,30.66,30.66,0,0,0-4.4,3.8,34,34,0,0,0-3.8,4.7,44,44,0,0,0-2.9,5.1A34.51,34.51,0,0,0,396.9,125.6Z" transform="translate(-62.43 -58.56)"/><path class="cls-1" d="M440.1,137.8c.4-2.3.9-4.9,1.5-7.7s1.2-5.7,1.8-8.6,1.2-5.7,1.8-8.5,1.1-5.3,1.5-7.6v-1.7c0-1,.1-2.1.2-3.1a13.56,13.56,0,0,1,.6-2.9,7.93,7.93,0,0,1,1.2-2.6,2.92,2.92,0,0,1,2.2-.7,3.71,3.71,0,0,1,2.3.6,5,5,0,0,1,1.4,1.5,7.11,7.11,0,0,1,.7,2.2,21.05,21.05,0,0,1,.2,2.5v1.6c0,.6-.1,1-.1,1.4q1.35-1.5,3-3c1.1-1,2.2-1.9,3.4-2.8a17.21,17.21,0,0,1,3.8-2,11.5,11.5,0,0,1,4.1-.8,5,5,0,0,1,1.7.2,10.46,10.46,0,0,1,1.7.4,17.23,17.23,0,0,1,2.1.7,11.25,11.25,0,0,1,2.1,1.2,11.94,11.94,0,0,1,2.8,3.1,6.92,6.92,0,0,1,1.1,3.8,5,5,0,0,1-.3,1.6,8,8,0,0,1-.8,1.6,6.79,6.79,0,0,1-1.2,1.2,3,3,0,0,1-1.6.5,5.92,5.92,0,0,1-2.1-.4,7.49,7.49,0,0,1-2-1.1,3.51,3.51,0,0,1-.7-.9,6.73,6.73,0,0,1-.7-1.1,8.79,8.79,0,0,0-.6-1,5.92,5.92,0,0,0-.4-.6c-.2,0-.4-.1-.6-.1h-.6a9.73,9.73,0,0,0-4.9,1.3,21.83,21.83,0,0,0-4.3,3.2,46.13,46.13,0,0,0-3.7,4c-1.1,1.4-2.1,2.7-2.9,3.8-.7,2.7-1.4,5.6-2.2,8.7s-1.6,6.3-2.4,9.6v1.3c0,1,0,2-.1,3.1a11.54,11.54,0,0,1-.6,2.8,5.34,5.34,0,0,1-1.6,1.3,4.71,4.71,0,0,1-2.4.5,3.88,3.88,0,0,1-3.2-1.4,5.17,5.17,0,0,1-1.1-3.2A3.13,3.13,0,0,1,440.1,137.8Z" transform="translate(-62.43 -58.56)"/><path class="cls-1" d="M490.2,127.3a39.6,39.6,0,0,1,1-8.8c.6-3,1.3-5.9,2-8.7a12.59,12.59,0,0,1-2.7-.4,10.89,10.89,0,0,1-2.5-1,6.55,6.55,0,0,1-1.8-1.5,3.06,3.06,0,0,1-.7-2,7.38,7.38,0,0,1,.2-1.2,4.24,4.24,0,0,1,.6-1.4,5.8,5.8,0,0,1,1-1.2,1.87,1.87,0,0,1,1.4-.5h6.7a1.34,1.34,0,0,0,1.3-.8c.2-.6.4-1.1.6-1.6q.6-2.85,1.2-5.1c.4-1.4.7-2.6,1-3.6a20.68,20.68,0,0,0,.6-2.4,4.42,4.42,0,0,0,.2-1.5V84.3c0-.4-.1-1-.1-1.7v-.5a4.91,4.91,0,0,1,.1-1.1,13.67,13.67,0,0,1,.5-1.9,5.82,5.82,0,0,1,1.1-1.8,3,3,0,0,1,2.4-.9,4.14,4.14,0,0,1,2.3.6,5.72,5.72,0,0,1,1.6,1.5,6.67,6.67,0,0,1,.9,2.1,9.08,9.08,0,0,1,.3,2.3,8.52,8.52,0,0,1-.3,2.3l-3.7,14.1q2.7-.45,4.8-.9c1.4-.3,2.8-.5,4.2-.8s2.9-.6,4-.9,2.1-.5,2.9-.7a19.27,19.27,0,0,0,2-.5,9.32,9.32,0,0,1,1.4-.2,8.6,8.6,0,0,1,1.6.1,6.58,6.58,0,0,1,1.5.4,1.79,1.79,0,0,1,1,.9,2.41,2.41,0,0,1,.4,1.5,4.65,4.65,0,0,1-.5,2.1,4.81,4.81,0,0,1-1.2,1.6,6.19,6.19,0,0,1-1.7,1.1,7,7,0,0,1-1.9.6c-.5.1-1.2.3-2.1.5s-1.8.4-2.8.7-2.1.5-3.2.8-2.2.5-3.2.8c-1.5.4-2.9.7-3.9,1a20.46,20.46,0,0,1-2.8.6c-.8.1-1.4.2-1.9.3a5.74,5.74,0,0,1-1.2.1c-.6,1.9-1.2,3.8-1.7,5.6s-.9,3.6-1.2,5.2a42.3,42.3,0,0,0-.7,4.3,17.39,17.39,0,0,0-.2,2.9,10.9,10.9,0,0,0,.3,2.6,6.67,6.67,0,0,0,.9,2.1,3.64,3.64,0,0,0,1.6,1.4,5,5,0,0,0,2.6.5,10.06,10.06,0,0,0,5.2-1.5,27.43,27.43,0,0,0,4.9-3.7,41.45,41.45,0,0,0,4.4-4.9c1.4-1.8,2.7-3.5,3.8-5.1a1.8,1.8,0,0,1,1.6-.9,2,2,0,0,1,.7.1,2,2,0,0,1,.8.4,2.34,2.34,0,0,1,.7.7,1.69,1.69,0,0,1,.3,1v.6a27.55,27.55,0,0,1-2.5,6.3c-1.1,2.1-2.3,4.2-3.4,6.3a10.19,10.19,0,0,1-1.6,2.2c-.7.7-1.4,1.4-2.1,2s-1.6,1.3-2.4,1.9-1.6,1.1-2.4,1.6a12.81,12.81,0,0,1-4.2,1.7,22.83,22.83,0,0,1-4.4.5A13.36,13.36,0,0,1,498,141a13.82,13.82,0,0,1-4.3-3.2,13.11,13.11,0,0,1-2.6-4.8A17,17,0,0,1,490.2,127.3Z" transform="translate(-62.43 -58.56)"/><path class="cls-1" d="M68.5,85.3H246.4c8,0,8.1-12.5,0-12.5H68.5c-8.1,0-8.1,12.5,0,12.5Z" transform="translate(-62.43 -58.56)"/><path class="cls-2" d="M79.6,116.3l139.8-6.9c8-.4,8.1-12.9,0-12.5L79.6,103.8c-8,.3-8.1,12.8,0,12.5Z" transform="translate(-62.43 -58.56)"/><path class="cls-3" d="M67.5,84.4Q142.2,96.7,217,108.9c7.9,1.3,11.3-10.8,3.3-12.1Q145.6,84.5,70.8,72.3C63,71.1,59.6,83.1,67.5,84.4Z" transform="translate(-62.43 -58.56)"/><path class="cls-4" d="M78.6,116.6Q136.8,127,194.9,137.2c7.9,1.4,11.2-10.7,3.3-12.1Q140,114.75,81.9,104.5c-7.8-1.4-11.2,10.7-3.3,12.1Z" transform="translate(-62.43 -58.56)"/><path class="cls-4" d="M92.8,139.4c35.1-.6,70.3-1.3,105.4-1.9,8-.1,8.1-12.6,0-12.5-35.1.6-70.3,1.3-105.4,1.9-8.1.1-8.1,12.6,0,12.5Z" transform="translate(-62.43 -58.56)"/><path class="cls-5" d="M132.8,165.5h0a10.63,10.63,0,0,1-10.7-10.6h0a10.63,10.63,0,0,1,10.6-10.7h0a10.63,10.63,0,0,1,10.7,10.6h0A10.69,10.69,0,0,1,132.8,165.5Z" transform="translate(-62.43 -58.56)"/><path class="cls-5" d="M161.5,165.4h0a10.63,10.63,0,0,1-10.7-10.6h0a10.63,10.63,0,0,1,10.6-10.7h0a10.63,10.63,0,0,1,10.7,10.6h0A10.56,10.56,0,0,1,161.5,165.4Z" transform="translate(-62.43 -58.56)"/><text class="cls-6" transform="translate(154.69 88.4)">X</text></svg>